<svg id="Capa_1" data-name="Capa 1" xmlns="http://www.w3.org/2000/svg" viewBox="0 0 857.68 273.03"><defs><style>.cls-1{fill:#fff;}</style></defs><title>Marca-swappi</title><path class="cls-1" d="M661.24,101.94c0-9.68,3-13.65,11.29-15,7-1.13,12.82,3,15.16,11.27,1.22,4.36,3.14,1.58,4.5.63,7.1-5,14.52-9.21,23.16-10.91C744,82.3,770.8,100,777,128.63c6,27.84-4.88,53.54-27.7,64.93-15.11,7.54-30.47,7.55-45.84.63-1.25-.56-2.46-1.2-3.67-1.85-3.66-2-5.49-1.74-5.38,3.25.25,11.53.15,23.07,0,34.61-.12,8.49-4,14.24-10.59,16.63-7.46,2.68-15.1.38-20.48-6.08a9.76,9.76,0,0,1-2.39-6.81C661.07,211.65,661.23,123.65,661.24,101.94Zm31.18,40.17c-.56,16.58,10.34,28.85,26,29.3,15.09.43,26.91-11.35,27.52-27.45s-10.83-28.86-26.23-29.33C704.49,114.16,693,125.76,692.42,142.11Z"/><path class="cls-1" d="M803.73,142.19c0-13.86-.06-27.71,0-41.57.06-9.91,6.66-16.74,16.22-17,9.82-.24,17.34,6.52,17.41,16.5q.27,41.87-.07,83.73c-.1,10.65-7.37,17.32-17.43,16.95-9.9-.36-16.09-7.07-16.13-17.64C803.69,169.51,803.73,155.85,803.73,142.19Z"/><path class="cls-1" d="M841.1,45.67a20.47,20.47,0,1,1-40.94-.31,20.47,20.47,0,0,1,40.94.31Z"/><path class="cls-1" d="M189.65,127.58c0-8.4-.12-16.81,0-25.21.17-8.71,6.33-14.72,14.85-14.83a14.61,14.61,0,0,1,14.92,14.81c.17,14.46,0,28.93.06,43.39,0,4.32.14,8.62,2.26,12.56,3.85,7.16,12.17,11.2,19.69,9.59a18.71,18.71,0,0,0,15.25-18.34c.26-15.44,0-30.89.14-46.33.06-8.4,5.3-14.57,12.95-15.59,9.47-1.27,17.35,5.41,17.46,15.2.17,15.24.08,30.49.08,45.74,0,6.18,1.85,11.61,6.79,15.54,5.66,4.5,12,5.69,18.65,2.42,7-3.47,11.13-9.11,11.16-17.17.07-15.05,0-30.1.07-45.16.07-10.1,6-16.61,14.93-16.71,9.09-.1,15.31,6.7,15.34,16.94.06,14.86.29,29.72-.05,44.57-.47,20.05-9.35,35.53-27.53,44.31-17.85,8.61-35.35,6.82-51.28-5.39-2.95-2.26-4.78-2-7.55.16-16,12.19-33.61,13.88-51.3,5.16-18-8.87-27-24.26-27-44.55q0-10.55,0-21.11Z"/><path class="cls-1" d="M516,101.59c0-8.51,3.75-13.37,11.14-14.61,6.91-1.16,12.84,2.83,15,10.65.93,3.35,2.15,3,4.36,1.43,5.9-4.22,12-8,19.09-10,32.6-9.43,63.47,12.47,67.44,47.87,3.85,34.37-21.72,63.48-54.8,62.3a52.53,52.53,0,0,1-24-6.89c-4-2.25-5.34-1.32-5.28,3.32.16,11.92.18,23.85-.19,35.76-.31,10.09-7.3,16.69-16.73,16.54-9.89-.16-16.43-6.88-16.48-17.32C515.42,208.7,515.93,122.56,516,101.59Zm84.47,41.3c.06-16-11.37-28.12-26.61-28.27s-26.71,11.9-26.9,28c-.2,16.78,11.15,28.8,27.17,28.79C589,171.39,600.35,159.1,600.42,142.89Z"/><path class="cls-1" d="M487.48,155.42c0,9.57.11,19.15,0,28.72-.13,8.17-4.07,13.57-10.52,14.93-7,1.48-12.57-1.59-15.95-9.51-1.93-4.53-4.11-1.49-5.85-.5-12.68,7.2-26.13,10-40.6,7.8a48.76,48.76,0,0,1-17.13-5.67c-18.46-10.56-18.78-37.66-.49-51.36,13-9.72,27.9-10.18,43.15-8,4.05.58,8,1.76,12,2.73,2.93.71,4.13-.33,4.61-3.38,1.7-10.81-5.1-19.65-16.69-21.32-10.39-1.5-20.18.51-29.59,4.92-3,1.41-6.09,2.83-9.54,1.55-3.94-1.47-6.68-4.16-7.41-8.36s.87-7.65,4.14-10.33c4.33-3.56,9.55-5.29,14.78-6.87,17.52-5.28,34.94-6.06,52,1.7,14.17,6.44,21.63,17.62,22.33,33C487.17,135.49,487.26,155.42,487.48,155.42Zm-53.71-5.5c-4.57.16-9.27,1-13.41,4-3.74,2.71-6,6.19-5.53,10.86s3.59,7.64,7.87,9.24a24.92,24.92,0,0,0,22.42-2.07c4-2.4,6.58-6.14,6.12-11.15s-3.72-7.41-8-9.06A29.14,29.14,0,0,0,433.77,149.92Z"/><path class="cls-1" d="M97.35,168c-1.16-9.39-2.32-18.83-3.47-28.26-.14-1.17-.18-2.34-.31-3.51-1.6-13.84-1.6-13.82,12-15.54q14.53-1.85,29.06-3.8c3.45-.46,4.75.66,2.44,3.63-4.64,6-2.36,9.9,2.58,14.57,13.27,12.56,19.77,27.84,16.48,46.49-3.09,17.54-14.47,28-29.74,35.15a58.06,58.06,0,0,1-18.44,5.6c-5.44.58-6.85,3.14-6.4,8.05a48.9,48.9,0,0,1-.09,9.37c-.86,8.53-7.59,14.52-15.71,14.22-7.84-.3-13.82-6.6-14.4-15-.37-5.22,2.07-11.49-1.19-15.39-3-3.63-9.45-2.79-14.28-4.3-7.88-2.46-15.53-5.36-22.51-9.8-7.68-4.88-15.36-9.81-16.8-19.78a33.53,33.53,0,0,1,.49-4.71c4-13.95,18.89-18.85,30.09-9.46a63.53,63.53,0,0,0,35,14.85,43.85,43.85,0,0,0,22.33-3.3c8-3.46,11.74-11,9.54-18.47-1-3.4-2.87-6.26-6.28-7.15-3.12-.81-4.71,2-6.45,4.13C100.49,166.6,99.73,167.85,97.35,168Z"/><path class="cls-1" d="M46.94,150.35c-1.52.13-3.43,1.13-4.46-.2-1.27-1.64.27-3.51,1.2-4.75,3.67-4.87,1.89-8.5-2-12-4.2-3.78-8.44-7.53-11.45-12.46-14-23-4.65-52,21-64.61,4.91-2.41,9.93-4.73,15.35-5.65,4-.67,5.11-2.74,4.9-6.46a89.86,89.86,0,0,1,.08-11.13,14.92,14.92,0,0,1,29.57-1.7,60.49,60.49,0,0,1,.49,12.26c-.18,3.85,1.15,5.58,5.06,6.18a100.84,100.84,0,0,1,31.08,10.07c10.1,5.19,14,14.84,9.48,23.75-4.3,8.51-14.56,11.35-24.29,6.13-13-7-26.27-12.05-41.44-9.17-10.32,2-15.87,8-15.07,16.87a11.14,11.14,0,0,0,2.06,6c2.24,2.86,4.7,4.13,7.66.79a42.37,42.37,0,0,1,3.76-3.7c1.69-1.47,2.76-1.15,3,1.2q2.39,20.08,4.8,40.16c.33,2.77-1.43,3.11-3.57,3.41C72.7,146.94,47.91,150.27,46.94,150.35Z"/></svg>