<?xml version="1.0" encoding="utf-8"?>
<!-- Generator: Adobe Illustrator 24.0.0, SVG Export Plug-In . SVG Version: 6.00 Build 0)  -->
<svg version="1.1" id="Capa_1" xmlns="http://www.w3.org/2000/svg" xmlns:xlink="http://www.w3.org/1999/xlink" x="0px" y="0px"
	 viewBox="0 0 666 349" style="enable-background:new 0 0 666 349;" xml:space="preserve">
<style type="text/css">
	.st0{opacity:0.95;fill:#FFFFFF;}
	.st1{opacity:0.92;fill:url(#Rectángulo_199_7_);}
	.st2{fill:#FFFFFF;stroke:#FFFFFF;stroke-width:2;stroke-linecap:round;stroke-linejoin:round;stroke-miterlimit:10;}
	.st3{fill:#FFFFFF;}
	.st4{fill:url(#Rectángulo_199_8_);}
	.st5{opacity:0.2;}
	.st6{fill:none;stroke:#FFFFFF;stroke-width:10;stroke-miterlimit:10;}
	.st7{opacity:0.5;fill:none;stroke:#FFFFFF;stroke-width:10;}
	
		.st8{opacity:0.25;fill:none;stroke:#FFFFFF;stroke-width:10;stroke-linecap:round;stroke-linejoin:round;enable-background:new    ;}
	
		.st9{opacity:0.35;fill:none;stroke:#FFFFFF;stroke-width:10;stroke-linecap:round;stroke-linejoin:round;enable-background:new    ;}
	
		.st10{opacity:0.5;fill:none;stroke:#FFFFFF;stroke-width:10;stroke-linecap:round;stroke-linejoin:round;enable-background:new    ;}
	.st11{fill:url(#Rectángulo_199_9_);}
	.st12{fill:url(#Rectángulo_199_10_);}
	.st13{fill:none;}
	.st14{fill:none;stroke:#FFFFFF;stroke-width:2;}
	
		.st15{opacity:0.25;fill:none;stroke:#FFFFFF;stroke-width:5;stroke-linecap:round;stroke-linejoin:round;enable-background:new    ;}
	
		.st16{opacity:0.35;fill:none;stroke:#FFFFFF;stroke-width:5;stroke-linecap:round;stroke-linejoin:round;enable-background:new    ;}
	
		.st17{opacity:0.5;fill:none;stroke:#FFFFFF;stroke-width:5;stroke-linecap:round;stroke-linejoin:round;enable-background:new    ;}
	.st18{fill:#1C8FC7;stroke:#1C8FC7;stroke-width:2;stroke-linecap:round;stroke-linejoin:round;stroke-miterlimit:10;}
	.st19{fill:#1C8FC7;}
	.st20{fill:#481B75;}
	.st21{fill:#CCCCCC;}
	.st22{fill:#B3B3B3;}
	.st23{fill:#999999;}
	.st24{opacity:0.59;}
	.st25{fill:#434343;}
	.st26{fill:url(#SVGID_11_);}
	.st27{fill:url(#SVGID_12_);}
	.st28{opacity:0.6;}
	.st29{fill-rule:evenodd;clip-rule:evenodd;fill:url(#SVGID_27_);}
	.st30{fill:url(#SVGID_28_);}
	.st31{fill-rule:evenodd;clip-rule:evenodd;fill:url(#SVGID_29_);}
	.st32{fill:url(#SVGID_30_);}
	.st33{fill-rule:evenodd;clip-rule:evenodd;fill:#FFFFFF;}
	.st34{opacity:0.1;clip-path:url(#SVGID_32_);}
	.st35{fill-rule:evenodd;clip-rule:evenodd;fill:url(#SVGID_33_);}
	.st36{fill:url(#SVGID_34_);}
	.st37{fill-rule:evenodd;clip-rule:evenodd;fill:url(#SVGID_35_);}
	.st38{fill:url(#SVGID_36_);}
	.st39{fill:#D4D4D4;}
	.st40{fill-rule:evenodd;clip-rule:evenodd;fill:#D4D4D4;}
	.st41{opacity:0.1;clip-path:url(#SVGID_38_);}
	.st42{fill:#009ADA;}
	.st43{fill:#8CC63F;}
	.st44{fill:url(#Rectángulo_199_11_);}
	.st45{opacity:0.72;fill:#09A603;}
	.st46{opacity:0.4;fill:#999999;}
	.st47{fill-rule:evenodd;clip-rule:evenodd;fill:url(#SVGID_39_);}
	.st48{fill:url(#SVGID_40_);}
	.st49{fill-rule:evenodd;clip-rule:evenodd;fill:url(#SVGID_41_);}
	.st50{fill:url(#SVGID_42_);}
	.st51{opacity:0.1;clip-path:url(#SVGID_44_);}
</style>
<g>
	<g>
		<path class="st42" d="M31.21,148.79c-9.39-5.19-15.85-11.98-19.39-20.37c-0.59-1.42-0.89-2.6-0.89-3.54
			c0-1.77,0.65-3.33,1.95-4.69c1.3-1.36,3.07-2.27,5.31-2.75c0.35-0.12,0.94-0.18,1.77-0.18c1.89,0,3.69,0.56,5.4,1.68
			c1.71,1.12,2.98,2.63,3.81,4.52c2.13,4.61,6.32,8.5,12.58,11.69c6.26,3.19,13.16,4.78,20.72,4.78c8.86,0,16.35-2.04,22.49-6.11
			c6.14-4.07,9.21-9.65,9.21-16.74c0-6.73-2.6-12.49-7.79-17.27c-5.2-4.78-13.11-7.7-23.73-8.77c-14.64-1.42-26.15-5.7-34.54-12.84
			c-8.38-7.14-12.57-16.09-12.57-26.83c0-7.55,2.15-14.08,6.46-19.57c4.31-5.49,10.21-9.68,17.71-12.58
			c7.5-2.89,15.91-4.34,25.24-4.34c10.15,0,18.71,2.07,25.68,6.2c6.97,4.13,12.87,10.04,17.71,17.71c1.42,2.24,2.13,4.37,2.13,6.38
			c0,2.6-1.18,4.72-3.54,6.38c-1.3,0.83-2.83,1.24-4.6,1.24c-1.77,0-3.43-0.44-4.96-1.33c-1.54-0.89-2.72-2.09-3.54-3.63
			c-3.19-5.31-7.17-9.36-11.96-12.13c-4.78-2.77-10.83-4.16-18.15-4.16c-8.97,0-16.24,1.74-21.79,5.22
			c-5.55,3.48-8.32,8.53-8.32,15.14c0,6.14,2.48,11.28,7.44,15.41c4.96,4.13,13.81,6.85,26.57,8.15
			c14.17,1.42,25.15,5.7,32.94,12.84c7.79,7.14,11.69,16.56,11.69,28.25c0,8.5-2.3,15.79-6.91,21.87
			c-4.6,6.08-10.71,10.63-18.33,13.64c-7.62,3.01-15.79,4.52-24.53,4.52C51.02,156.59,40.6,153.99,31.21,148.79z"/>
		<path class="st42" d="M247.1,59.89c1.24,1.3,1.86,3.07,1.86,5.31c0,1.89-0.3,3.6-0.89,5.14l-26.21,78.64
			c-0.59,1.66-1.65,3.04-3.19,4.16c-1.54,1.12-3.25,1.68-5.14,1.68c-2.01,0-3.81-0.56-5.4-1.68c-1.59-1.12-2.63-2.51-3.1-4.16
			l-17.36-64.29l-18.24,64.29c-0.59,1.66-1.68,3.04-3.28,4.16c-1.59,1.12-3.34,1.68-5.22,1.68c-1.89,0-3.63-0.56-5.22-1.68
			c-1.59-1.12-2.69-2.51-3.28-4.16l-26.21-78.64c-0.47-1.53-0.71-3.19-0.71-4.96c0-4.96,2.48-7.44,7.44-7.44
			c2.24,0,4.1,0.65,5.58,1.95c1.47,1.3,2.68,3.37,3.63,6.2l19.13,59.69l18.07-61.1c0.59-2.01,1.62-3.63,3.1-4.87
			c1.47-1.24,3.39-1.86,5.76-1.86c2.24,0,4.1,0.62,5.58,1.86c1.47,1.24,2.51,2.86,3.1,4.87l15.94,62.34l19.48-60.93
			c1.65-5.43,4.72-8.15,9.21-8.15C244,57.94,245.86,58.59,247.1,59.89z"/>
		<path class="st42" d="M332.65,63.69c7.38,4.31,13.22,10.21,17.53,17.71c4.31,7.5,6.46,15.85,6.46,25.06v39.5
			c0,2.6-0.86,4.75-2.57,6.46c-1.71,1.71-3.87,2.57-6.46,2.57c-2.6,0-4.75-0.85-6.46-2.57c-1.71-1.71-2.57-3.87-2.57-6.46v-6.55
			c-4.13,5.08-9.15,9.03-15.05,11.87c-5.91,2.83-12.28,4.25-19.13,4.25c-8.5,0-16.21-2.13-23.11-6.38
			c-6.91-4.25-12.34-10.12-16.29-17.62c-3.96-7.5-5.93-15.85-5.93-25.06s2.13-17.56,6.38-25.06c4.25-7.5,10.12-13.4,17.62-17.71
			c7.5-4.31,15.79-6.46,24.88-6.46C317.03,57.23,325.27,59.38,332.65,63.69z M323.97,135.25c4.78-2.89,8.53-6.85,11.25-11.87
			c2.71-5.02,4.07-10.65,4.07-16.91c0-6.26-1.36-11.92-4.07-17c-2.72-5.08-6.46-9.06-11.25-11.95c-4.78-2.89-10.13-4.34-16.03-4.34
			c-5.91,0-11.25,1.45-16.03,4.34c-4.78,2.89-8.56,6.88-11.33,11.95c-2.78,5.08-4.16,10.75-4.16,17c0,6.26,1.39,11.9,4.16,16.91
			c2.77,5.02,6.55,8.97,11.33,11.87c4.78,2.89,10.12,4.34,16.03,4.34C313.85,139.58,319.19,138.14,323.97,135.25z"/>
		<path class="st42" d="M457.15,63.69c7.5,4.31,13.37,10.21,17.62,17.71c4.25,7.5,6.38,15.85,6.38,25.06s-1.98,17.56-5.93,25.06
			c-3.96,7.5-9.39,13.37-16.29,17.62c-6.91,4.25-14.61,6.38-23.11,6.38c-6.85,0-13.22-1.42-19.13-4.25
			c-5.91-2.83-10.92-6.79-15.05-11.87v47.82c0,2.71-0.83,4.9-2.48,6.55c-1.66,1.65-3.84,2.48-6.55,2.48c-2.6,0-4.75-0.83-6.46-2.48
			c-1.71-1.66-2.57-3.84-2.57-6.55v-80.76c0-9.21,2.15-17.56,6.46-25.06c4.31-7.5,10.15-13.4,17.53-17.71
			c7.38-4.31,15.61-6.46,24.71-6.46C441.36,57.23,449.65,59.38,457.15,63.69z M448.3,135.25c4.78-2.89,8.56-6.85,11.33-11.87
			c2.77-5.02,4.16-10.65,4.16-16.91c0-6.26-1.39-11.92-4.16-17c-2.78-5.08-6.55-9.06-11.33-11.95c-4.78-2.89-10.13-4.34-16.03-4.34
			c-5.91,0-11.25,1.45-16.03,4.34c-4.78,2.89-8.53,6.88-11.25,11.95c-2.72,5.08-4.07,10.75-4.07,17c0,6.26,1.36,11.9,4.07,16.91
			c2.71,5.02,6.46,8.97,11.25,11.87c4.78,2.89,10.12,4.34,16.03,4.34C438.17,139.58,443.52,138.14,448.3,135.25z"/>
		<path class="st42" d="M581.66,63.69c7.5,4.31,13.37,10.21,17.62,17.71c4.25,7.5,6.38,15.85,6.38,25.06s-1.98,17.56-5.93,25.06
			c-3.96,7.5-9.39,13.37-16.29,17.62c-6.91,4.25-14.61,6.38-23.11,6.38c-6.85,0-13.22-1.42-19.13-4.25
			c-5.91-2.83-10.92-6.79-15.05-11.87v47.82c0,2.71-0.83,4.9-2.48,6.55c-1.66,1.65-3.84,2.48-6.55,2.48c-2.6,0-4.75-0.83-6.46-2.48
			c-1.71-1.66-2.57-3.84-2.57-6.55v-80.76c0-9.21,2.15-17.56,6.46-25.06c4.31-7.5,10.15-13.4,17.53-17.71
			c7.38-4.31,15.61-6.46,24.71-6.46C565.87,57.23,574.16,59.38,581.66,63.69z M572.8,135.25c4.78-2.89,8.56-6.85,11.33-11.87
			c2.77-5.02,4.16-10.65,4.16-16.91c0-6.26-1.39-11.92-4.16-17c-2.78-5.08-6.55-9.06-11.33-11.95c-4.78-2.89-10.13-4.34-16.03-4.34
			c-5.91,0-11.25,1.45-16.03,4.34c-4.78,2.89-8.53,6.88-11.25,11.95c-2.72,5.08-4.07,10.75-4.07,17c0,6.26,1.36,11.9,4.07,16.91
			c2.71,5.02,6.46,8.97,11.25,11.87c4.78,2.89,10.12,4.34,16.03,4.34C562.68,139.58,568.02,138.14,572.8,135.25z"/>
		<path class="st42" d="M636.92,152.25c-1.71-1.71-2.57-3.87-2.57-6.46V66.97c0-2.71,0.86-4.9,2.57-6.55
			c1.71-1.65,3.87-2.48,6.46-2.48c2.71,0,4.9,0.83,6.55,2.48c1.65,1.66,2.48,3.84,2.48,6.55v78.81c0,2.6-0.83,4.75-2.48,6.46
			c-1.66,1.71-3.84,2.57-6.55,2.57C640.78,154.82,638.63,153.96,636.92,152.25z"/>
	</g>
	<g>
		<path class="st43" d="M495.22,334.1c-86.02,0-156-69.98-156-156c0-4.42,3.58-8,8-8s8,3.58,8,8c0,77.2,62.8,140,140,140
			s140-62.8,140-140c0-4.42,3.58-8,8-8s8,3.58,8,8C651.22,264.12,581.24,334.1,495.22,334.1z"/>
	</g>
	<path class="st43" d="M635.14,38.72c-2.3-2.3-3.45-5.05-3.45-8.24c0-3.19,1.15-5.93,3.45-8.24c2.3-2.3,5.05-3.45,8.24-3.45
		c3.19,0,5.93,1.15,8.24,3.45c2.3,2.3,3.45,5.05,3.45,8.24c0,3.19-1.15,5.93-3.45,8.24c-2.3,2.3-5.05,3.45-8.24,3.45
		C640.19,42.17,637.45,41.02,635.14,38.72z"/>
</g>
</svg>
